<svg xmlns="http://www.w3.org/2000/svg" width="104" height="102" viewBox="0 0 104 102">
  <g id="Group_254" data-name="Group 254" transform="translate(-499 -704)">
    <path id="Path_385" data-name="Path 385" d="M52,0c28.719,0,52,22.833,52,51s-23.281,51-52,51S0,79.167,0,51,23.281,0,52,0Z" transform="translate(499 704)" fill="#fdb65a"/>
    <g id="_1214428" data-name="1214428" transform="translate(533.003 732.846)">
      <path id="Path_386" data-name="Path 386" d="M223.459,154.7a1.061,1.061,0,0,0-1.061,1.061v20.057a1.061,1.061,0,0,0,2.122,0V155.764A1.061,1.061,0,0,0,223.459,154.7Zm0,0" transform="translate(-198.8 -138.287)" fill="#fff"/>
      <path id="Path_387" data-name="Path 387" d="M105.459,154.7a1.061,1.061,0,0,0-1.061,1.061v20.057a1.061,1.061,0,0,0,2.122,0V155.764A1.061,1.061,0,0,0,105.459,154.7Zm0,0" transform="translate(-93.322 -138.287)" fill="#fff"/>
      <path id="Path_388" data-name="Path 388" d="M3.011,13.489V39.634a5.855,5.855,0,0,0,1.557,4.038,5.226,5.226,0,0,0,3.792,1.639H28.437a5.225,5.225,0,0,0,3.792-1.639,5.855,5.855,0,0,0,1.557-4.038V13.489a4.054,4.054,0,0,0-1.04-7.972H27.312V4.19A4.168,4.168,0,0,0,23.11,0H13.686a4.168,4.168,0,0,0-4.2,4.192V5.517H4.051a4.054,4.054,0,0,0-1.04,7.972Zm25.426,29.7H8.359a3.361,3.361,0,0,1-3.226-3.555V13.582h26.53V39.634a3.361,3.361,0,0,1-3.226,3.555Zm-16.831-39a2.044,2.044,0,0,1,2.08-2.069H23.11A2.044,2.044,0,0,1,25.19,4.19V5.517H11.606ZM4.051,7.639H32.745a1.91,1.91,0,0,1,0,3.82H4.051a1.91,1.91,0,0,1,0-3.82Zm0,0" transform="translate(0 0)" fill="#fff"/>
      <path id="Path_389" data-name="Path 389" d="M164.459,154.7a1.061,1.061,0,0,0-1.061,1.061v20.057a1.061,1.061,0,0,0,2.122,0V155.764A1.061,1.061,0,0,0,164.459,154.7Zm0,0" transform="translate(-146.061 -138.287)" fill="#fff"/>
    </g>
  </g>
</svg>
