<svg xmlns="http://www.w3.org/2000/svg" xmlns:xlink="http://www.w3.org/1999/xlink" width="122" height="120" viewBox="0 0 122 120">
  <defs>
    <filter id="Ellipse_31" x="0" y="0" width="122" height="120" filterUnits="userSpaceOnUse">
      <feOffset dy="3" input="SourceAlpha"/>
      <feGaussianBlur stdDeviation="3" result="blur"/>
      <feFlood flood-opacity="0"/>
      <feComposite operator="in" in2="blur"/>
      <feComposite in="SourceGraphic"/>
    </filter>
  </defs>
  <g id="Group_255" data-name="Group 255" transform="translate(-369 -698)">
    <g transform="matrix(1, 0, 0, 1, 369, 698)" filter="url(#Ellipse_31)">
      <ellipse id="Ellipse_31-2" data-name="Ellipse 31" cx="52" cy="51" rx="52" ry="51" transform="translate(9 6)" fill="#fdb65a"/>
    </g>
    <g id="_2089779" data-name="2089779" transform="translate(406.721 737.802)">
      <path id="Path_383" data-name="Path 383" d="M19.949,68.887A21.186,21.186,0,0,0,.067,83.446a1.251,1.251,0,0,0,0,.806A21.186,21.186,0,0,0,19.949,98.81,21.186,21.186,0,0,0,39.83,84.252a1.251,1.251,0,0,0,0-.806A21.186,21.186,0,0,0,19.949,68.887Zm0,27.43A18.674,18.674,0,0,1,2.569,83.849a18.674,18.674,0,0,1,17.38-12.468,18.674,18.674,0,0,1,17.38,12.468A18.674,18.674,0,0,1,19.949,96.317Z" transform="translate(3.033 -66.612)" fill="#fff"/>
      <path id="Path_384" data-name="Path 384" d="M180.842,172.224a8.618,8.618,0,1,0,8.618,8.618A8.628,8.628,0,0,0,180.842,172.224Zm0,14.364a5.745,5.745,0,1,1,5.746-5.746A5.751,5.751,0,0,1,180.842,186.588Z" transform="translate(-157.861 -163.606)" fill="#fff"/>
    </g>
  </g>
</svg>
