<svg id="_921439" data-name="921439" xmlns="http://www.w3.org/2000/svg" width="100" height="100" viewBox="0 0 100 100">
  <g id="Group_235" data-name="Group 235" transform="translate(71.998 89.656)">
    <g id="Group_234" data-name="Group 234">
      <path id="Path_374" data-name="Path 374" d="M75.716,90.629a1.953,1.953,0,0,0-2.669-.709l-.075.043a1.953,1.953,0,1,0,1.96,3.378l.075-.043A1.953,1.953,0,0,0,75.716,90.629Z" transform="translate(-71.998 -89.656)" fill="#fb5253"/>
    </g>
  </g>
  <g id="Group_237" data-name="Group 237">
    <g id="Group_236" data-name="Group 236">
      <path id="Path_375" data-name="Path 375" d="M93.3,25.016A49.988,49.988,0,0,0,1.725,37.072,50,50,0,0,0,67.891,96.7a1.953,1.953,0,1,0-1.4-3.646A45.786,45.786,0,0,1,22.43,87l1.75-9.134.843-.274a6.083,6.083,0,0,0,3.9-7.656l-.619-1.9a2.157,2.157,0,0,1,0-1.347A6.076,6.076,0,0,0,23.7,58.825l-4.408-.861L10.786,51.5A1.953,1.953,0,0,0,9,51.194L4.02,52.811a46.044,46.044,0,0,1-.007-5.333c.2.183.324.307.4.389a2.047,2.047,0,0,0,1.908.978,28.368,28.368,0,0,0,3.5-.4c1.648-.244,3.287-.518,3.3-.521A1.953,1.953,0,0,0,14.418,44.9l-2.395-3.513,3.43-2.453a1.955,1.955,0,0,0,.559-.618l5.317-9.282,2.143-2.3a8.25,8.25,0,0,0,1.592-8.749,8.982,8.982,0,0,0-3.558-4.19A46.023,46.023,0,0,1,49.475,3.942L45.987,8.317,33.055,12.851a1.952,1.952,0,0,0-1.159,1.1L28.284,22.7a1.953,1.953,0,0,0,.216,1.879l5.275,7.389a18.562,18.562,0,0,0-2.369,2.94c-.385.547-.749,1.063-1,1.352-.219.252-.437.5-.654.742a18.277,18.277,0,0,0-3.141,4.36,11.638,11.638,0,0,0,.966,11.765,10.961,10.961,0,0,0,10.35,4.441,15.208,15.208,0,0,0,1.908-.385c1.674-.414,2.2-.456,2.742.047.261.245.285.291.28,1.121a7.592,7.592,0,0,0,.174,1.935,6.171,6.171,0,0,0,1.651,2.7,4.377,4.377,0,0,1,.708.9c.609,1.46.344,2.268-.237,4.04q-.075.227-.152.465c-.883,2.733.348,5.445,1.434,7.837.353.777.686,1.51.9,2.158,1.756,5.211,3.072,6.4,4.129,6.885a4.071,4.071,0,0,0,1.7.362c2.815,0,5.753-2.614,7.1-4.271a6,6,0,0,0,1.209-2.844,3.114,3.114,0,0,1,.25-.873,5.117,5.117,0,0,1,.641-.824,6.775,6.775,0,0,0,1.6-2.653,4.3,4.3,0,0,1,1.325-2.08c.134-.143.278-.3.431-.463,2.6-2.831,1.931-4.993,1.222-7.282-.6-1.926.447-3.158,2.972-5.51a21.1,21.1,0,0,0,3.1-3.34c.383-.554,1.547-2.24.827-3.912-.706-1.639-2.5-1.914-3.945-2.135a6.471,6.471,0,0,1-1.7-.4c-1.208-.79-1.948-2.439-2.663-4.034-.142-.317-.283-.631-.425-.935-.254-.543-.508-1.2-.776-1.894a16.384,16.384,0,0,0-2.887-5.377c-1.232-1.306-3.555-1.935-5.6-2.49-.689-.187-1.34-.363-1.769-.521a1.95,1.95,0,0,0-1.122-.069,5.068,5.068,0,0,0-2.082.862,2.426,2.426,0,0,0-.7.936,22.338,22.338,0,0,1-2.3-1.4l-.038-.025a2.769,2.769,0,0,0-.174-1.88c-1.091-2.308-4.713-2.127-5.427-2.066-.406.034-.919.052-1.463.071-.853.03-1.8.064-2.729.169l.048-.134a4.994,4.994,0,0,1,4.689-3.3h1.11a1.953,1.953,0,0,0,0-3.906H42.78a8.915,8.915,0,0,0-7.56,4.216l-2.913-4.081,2.866-6.947,12.637-4.43a1.954,1.954,0,0,0,.881-.626l5.618-7.047A46.058,46.058,0,0,1,89.918,26.968a45.577,45.577,0,0,1,4.6,11.179l-.828.738a5.216,5.216,0,0,0-1.738,3.795c0,.016,0,.031,0,.047L90.6,39.018a4.876,4.876,0,0,0-.879-1.509l-2.406-2.817a4.895,4.895,0,0,0-3.727-1.718H80.646a2.829,2.829,0,0,0-2.354,4.4l.3.447a21.645,21.645,0,0,1-6.448,3.829l-4.037-7.733V32.191a1.952,1.952,0,0,0-.6-1.413l-3.635-3.471a1.956,1.956,0,0,0-.7-.43l-3.272-1.15a1.953,1.953,0,1,0-1.3,3.685l2.876,1.011,2.727,2.6V34.4a1.954,1.954,0,0,0,.222.9l5.054,9.681a1.952,1.952,0,0,0,2.407.929l1.472-.543A25.56,25.56,0,0,0,82.519,39.5a1.953,1.953,0,0,0,.244-2.464l-.1-.156h.933a.994.994,0,0,1,.757.349l2.406,2.817a.992.992,0,0,1,.179.306l2.655,7.3a1.953,1.953,0,0,0,3.216.713L94.068,47.1a6.1,6.1,0,0,0,1.615-2.936,46.248,46.248,0,0,1-17.171,42.06A1.953,1.953,0,0,0,80.924,89.3,50,50,0,0,0,93.3,25.016ZM9.235,55.224l8.053,6.123a1.951,1.951,0,0,0,.808.362l4.854.948A2.17,2.17,0,0,1,24.6,65.464a6.037,6.037,0,0,0-.005,3.771l.619,1.9a2.173,2.173,0,0,1-1.393,2.734l-1.941.631a1.953,1.953,0,0,0-1.314,1.49L19,84.148a46.6,46.6,0,0,1-8.9-11.1A45.839,45.839,0,0,1,4.427,56.786Zm11.382-31.15-2.3,2.462a1.961,1.961,0,0,0-.267.362l-5.217,9.109L8.2,39.322a1.953,1.953,0,0,0-.478,2.689l1.734,2.544c-1,.149-1.9.271-2.493.337-.115-.11-.235-.221-.359-.337-.464-.431-1.109-1.007-2.071-1.849A46.163,46.163,0,0,1,18.289,16.58a5.078,5.078,0,0,1,3.165,2.9A4.334,4.334,0,0,1,20.617,24.074ZM36.541,34.746c.871-.49,2.893-.562,4.369-.614.592-.021,1.151-.041,1.65-.083a5.312,5.312,0,0,1,.832,0,1.953,1.953,0,0,0,.9,2.43c.366.2.876.536,1.416.9,1.526,1.018,3.257,2.171,4.882,2.274a3.241,3.241,0,0,0,2.653-1.105c.028-.029.055-.057.083-.083a2.092,2.092,0,0,0,.523-.64c.312.089.64.178.977.269,1.156.313,3.309.9,3.785,1.4a13.863,13.863,0,0,1,2.084,4.1c.294.76.571,1.477.882,2.142.134.285.265.579.4.877.9,2.01,1.923,4.289,4.09,5.705a8.073,8.073,0,0,0,3.25.99c.129.02.276.042.425.067a18.885,18.885,0,0,1-2.478,2.6c-2.418,2.252-5.427,5.054-4.041,9.524.654,2.111.685,2.339-.367,3.483-.143.156-.277.3-.4.431a8.025,8.025,0,0,0-2.2,3.572,3.048,3.048,0,0,1-.8,1.242,8.72,8.72,0,0,0-1.093,1.447,6.329,6.329,0,0,0-.707,2.075,2.391,2.391,0,0,1-.408,1.145,11.385,11.385,0,0,1-2.466,2.18,3.222,3.222,0,0,1-1.637.652c-.208-.223-.963-1.2-2.1-4.587-.281-.835-.671-1.695-1.049-2.526-.832-1.832-1.692-3.727-1.273-5.021q.074-.229.146-.448c.668-2.037,1.3-3.961.13-6.762a7.043,7.043,0,0,0-1.422-2.026,3.631,3.631,0,0,1-.746-.991,4.222,4.222,0,0,1-.064-.988,4.844,4.844,0,0,0-1.516-4c-2.161-2.023-4.682-1.4-6.35-.987a12.251,12.251,0,0,1-1.425.3,7.016,7.016,0,0,1-6.723-2.842,7.732,7.732,0,0,1-.606-7.817A14.829,14.829,0,0,1,32.671,39.6c.227-.255.456-.513.685-.776.381-.439.8-1.034,1.243-1.663A14.118,14.118,0,0,1,36.541,34.746Z" transform="translate(0 0)" fill="#fb5253"/>
    </g>
  </g>
  <g id="Group_239" data-name="Group 239" transform="translate(68.389 62.248)">
    <g id="Group_238" data-name="Group 238">
      <path id="Path_376" data-name="Path 376" d="M80.083,67.242l-.94-3.542a1.953,1.953,0,0,0-3.6-.43c-.214.395-.407.813-.593,1.217a8.393,8.393,0,0,1-.975,1.771,4.312,4.312,0,0,1-1.146.68A5.37,5.37,0,0,0,69.571,70.1a5.722,5.722,0,0,0-.129,2.755,1.778,1.778,0,0,1-.05,1.151l-.02.046c-.622,1.459-1.778,4.175-.156,6.483a4.068,4.068,0,0,0,3.32,2.071,3.171,3.171,0,0,0,.521-.042c1.992-.326,3.49-2.4,4.714-6.522l2.3-7.742A1.952,1.952,0,0,0,80.083,67.242ZM74.026,74.93a11.847,11.847,0,0,1-1.494,3.52c-.037-.047-.077-.1-.119-.161-.373-.532.185-1.841.554-2.708l.02-.046a5.5,5.5,0,0,0,.32-3.254,2.048,2.048,0,0,1-.008-1.014c.077-.244.534-.48,1.224-.813.306-.148.642-.31.982-.506Z" transform="translate(-68.389 -62.249)" fill="#fb5253"/>
    </g>
  </g>
  <g id="Group_241" data-name="Group 241" transform="translate(50.009 23.058)">
    <g id="Group_240" data-name="Group 240">
      <path id="Path_377" data-name="Path 377" d="M52.74,23.215l-.132-.046a1.953,1.953,0,1,0-1.293,3.686l.132.046a1.953,1.953,0,1,0,1.293-3.686Z" transform="translate(-50.009 -23.059)" fill="#fb5253"/>
    </g>
  </g>
</svg>
