<svg xmlns="http://www.w3.org/2000/svg" width="102" height="102" viewBox="0 0 102 102">
  <g id="Group_256" data-name="Group 256" transform="translate(-254 -704)">
    <circle id="Ellipse_32" data-name="Ellipse 32" cx="51" cy="51" r="51" transform="translate(254 704)" fill="#fdb65a"/>
    <g id="_126483" data-name="126483" transform="translate(278.024 735.085)">
      <path id="Path_382" data-name="Path 382" d="M37.565,2.628a8.859,8.859,0,0,0-12.538,0L2.04,25.607a1.15,1.15,0,0,0-.325.659L.011,38.881a1.146,1.146,0,0,0,.325.967,1.169,1.169,0,0,0,.813.342.93.93,0,0,0,.154-.009l7.6-1.027A1.157,1.157,0,0,0,8.6,36.861L2.5,37.683l1.19-8.8,9.26,9.26a1.169,1.169,0,0,0,.813.342,1.133,1.133,0,0,0,.813-.342L37.565,15.166a8.854,8.854,0,0,0,0-12.538ZM25.473,5.452l3.86,3.86L8.356,30.288,4.5,26.428ZM13.773,35.7,10,31.923,30.976,10.946l3.774,3.774ZM36.359,13.069,27.124,3.834a6.56,6.56,0,0,1,9.234,9.234Z" transform="translate(10 -3)" fill="#fff"/>
    </g>
  </g>
</svg>
