<svg id="mode-cards-large" viewBox="0 0 32 32" height="24" width="30">
                            <path
                              d="M28 22.28c0 .396-.323.72-.72.72H8.72a.721.721 0 0 1-.72-.72V21h15.28c1.5 0 2.72-1.22 2.72-2.72V13h1.28a.72.72 0 0 1 .72.72v8.56M8 15a1 1 0 1 1 0-2h12a1 1 0 1 1 0 2H8m-4 3.28V9.72A.72.72 0 0 1 4.72 9h18.56a.72.72 0 0 1 .72.72v8.56c0 .396-.323.72-.72.72H4.72a.721.721 0 0 1-.72-.72M27.28 11H26V9.72C26 8.22 24.78 7 23.28 7H4.72C3.22 7 2 8.22 2 9.72v8.56C2 19.78 3.22 21 4.72 21H6v1.28C6 23.78 7.22 25 8.72 25h18.56c1.5 0 2.72-1.22 2.72-2.72v-8.56c0-1.5-1.22-2.72-2.72-2.72z"
                              fill="#4257b2"
                            ></path>
                          </svg>